<svg width="10" height="11" viewBox="0 0 10 11" fill="currentColor" xmlns="http://www.w3.org/2000/svg">
<g clip-path="url(#clip0_1_141)">
<path d="M5.26875 0.741004C5.18997 0.685878 5.09615 0.656311 5 0.656311C4.90385 0.656311 4.81003 0.685878 4.73125 0.741004C4.12724 1.18615 3.57462 1.6971 3.08359 2.26444C1.98633 3.5246 1.40625 4.86014 1.40625 6.12499C1.40625 7.07811 1.78488 7.99219 2.45883 8.66615C3.13279 9.34011 4.04688 9.71874 5 9.71874C5.95312 9.71874 6.86721 9.34011 7.54116 8.66615C8.21512 7.99219 8.59375 7.07811 8.59375 6.12499C8.59375 3.10311 5.40469 0.835926 5.26875 0.741004ZM5 8.78124C4.29574 8.78051 3.62053 8.50043 3.12255 8.00244C2.62456 7.50445 2.34447 6.82925 2.34375 6.12499C2.34375 4.82382 3.125 3.6496 3.77734 2.89413C4.1498 2.46632 4.5589 2.07185 5 1.71522C5.4411 2.07185 5.8502 2.46632 6.22266 2.89413C6.875 3.6496 7.65625 4.82382 7.65625 6.12499C7.65553 6.82925 7.37544 7.50445 6.87745 8.00244C6.37947 8.50043 5.70426 8.78051 5 8.78124ZM6.93828 6.73436C6.84016 7.0463 6.66817 7.32993 6.43695 7.56116C6.20572 7.79238 5.92209 7.96436 5.61016 8.06249C5.56462 8.07665 5.51722 8.08389 5.46953 8.08397C5.35748 8.08405 5.2491 8.04399 5.16405 7.97105C5.07899 7.89811 5.02287 7.79711 5.00587 7.68635C4.98887 7.5756 5.0121 7.46241 5.07136 7.36732C5.13062 7.27222 5.22199 7.20149 5.32891 7.16796C5.49701 7.11514 5.64987 7.02249 5.77447 6.89789C5.89907 6.7733 5.99172 6.62044 6.04453 6.45233C6.063 6.3936 6.09285 6.33907 6.13239 6.29188C6.17193 6.24468 6.22038 6.20573 6.27497 6.17726C6.38522 6.11975 6.5138 6.1084 6.63242 6.14569C6.69116 6.16416 6.74568 6.19401 6.79288 6.23355C6.84008 6.27309 6.87902 6.32154 6.9075 6.37613C6.93597 6.43072 6.95342 6.49038 6.95883 6.55172C6.96425 6.61305 6.95753 6.67485 6.93906 6.73358L6.93828 6.73436Z" fill="currentColor"/>
</g>
<defs>
<clipPath id="clip0_1_141">
<rect width="10" height="10" fill="currentColor" transform="translate(0 0.5)"/>
</clipPath>
</defs>
</svg>
